<svg width="55" height="55" viewBox="0 0 55 55" fill="none" xmlns="http://www.w3.org/2000/svg">
<rect width="55" height="55" rx="27.5" fill="#E6680E"/>
<path d="M52.2503 23.6861V25.0284C52.2503 26.1404 51.344 27.0418 50.226 27.0418H49.5513L47.3487 42.376C47.0638 44.3598 45.3556 45.8333 43.3408 45.8333H12.5765C10.5617 45.8333 8.85352 44.3598 8.56851 42.376L6.36607 27.0418H5.6913C4.57329 27.0418 3.66699 26.1404 3.66699 25.0284V23.6861C3.66699 22.5742 4.57329 21.6728 5.6913 21.6728H11.3712L20.3777 9.35583C21.2545 8.15687 22.9424 7.89169 24.1481 8.76373C25.3536 9.63578 25.6202 11.3147 24.7434 12.5137L18.0461 21.6728H37.8713L31.1739 12.5137C30.2972 11.3147 30.5638 9.63569 31.7693 8.76365C32.9747 7.8916 34.6629 8.1567 35.5397 9.35575L44.5461 21.6728H50.226C51.344 21.6728 52.2503 22.5742 52.2503 23.6861ZM29.983 38.4509V29.0552C29.983 27.9432 29.0767 27.0418 27.9587 27.0418C26.8407 27.0418 25.9344 27.9432 25.9344 29.0552V38.4509C25.9344 39.5629 26.8407 40.4643 27.9587 40.4643C29.0767 40.4643 29.983 39.5629 29.983 38.4509ZM39.4297 38.4509V29.0552C39.4297 27.9432 38.5234 27.0418 37.4054 27.0418C36.2874 27.0418 35.3811 27.9432 35.3811 29.0552V38.4509C35.3811 39.5629 36.2874 40.4643 37.4054 40.4643C38.5234 40.4643 39.4297 39.5629 39.4297 38.4509ZM20.5362 38.4509V29.0552C20.5362 27.9432 19.6299 27.0418 18.5119 27.0418C17.3939 27.0418 16.4876 27.9432 16.4876 29.0552V38.4509C16.4876 39.5629 17.3939 40.4643 18.5119 40.4643C19.6299 40.4643 20.5362 39.5629 20.5362 38.4509Z" fill="white"/>
</svg>
