<svg width="462" height="69" viewBox="0 0 462 69" fill="none" xmlns="http://www.w3.org/2000/svg">
<rect x="51" y="7" width="55" height="55" rx="27.5" fill="#E6680E"/>
<path d="M103.25 30.6861V32.0284C103.25 33.1404 102.344 34.0418 101.226 34.0418H100.551L98.3487 49.376C98.0638 51.3598 96.3556 52.8333 94.3408 52.8333H63.5765C61.5617 52.8333 59.8535 51.3598 59.5685 49.376L57.3661 34.0418H56.6913C55.5733 34.0418 54.667 33.1404 54.667 32.0284V30.6861C54.667 29.5742 55.5733 28.6728 56.6913 28.6728H62.3712L71.3777 16.3558C72.2545 15.1569 73.9424 14.8917 75.1481 15.7637C76.3536 16.6358 76.6202 18.3147 75.7434 19.5137L69.0461 28.6728H88.8713L82.1739 19.5137C81.2972 18.3147 81.5638 16.6357 82.7693 15.7636C83.9747 14.8916 85.6629 15.1567 86.5397 16.3558L95.5461 28.6728H101.226C102.344 28.6728 103.25 29.5742 103.25 30.6861ZM80.983 45.4509V36.0552C80.983 34.9432 80.0767 34.0418 78.9587 34.0418C77.8407 34.0418 76.9344 34.9432 76.9344 36.0552V45.4509C76.9344 46.5629 77.8407 47.4643 78.9587 47.4643C80.0767 47.4643 80.983 46.5629 80.983 45.4509ZM90.4297 45.4509V36.0552C90.4297 34.9432 89.5234 34.0418 88.4054 34.0418C87.2874 34.0418 86.3811 34.9432 86.3811 36.0552V45.4509C86.3811 46.5629 87.2874 47.4643 88.4054 47.4643C89.5234 47.4643 90.4297 46.5629 90.4297 45.4509ZM71.5362 45.4509V36.0552C71.5362 34.9432 70.6299 34.0418 69.5119 34.0418C68.3939 34.0418 67.4876 34.9432 67.4876 36.0552V45.4509C67.4876 46.5629 68.3939 47.4643 69.5119 47.4643C70.6299 47.4643 71.5362 46.5629 71.5362 45.4509Z" fill="white"/>
<path d="M111.5 53V16.2188H122.469V22.9688C123.177 21.7396 124.052 20.6458 125.094 19.6875C126.156 18.7292 127.344 17.9167 128.656 17.25C129.969 16.5833 131.396 16.0833 132.938 15.75C134.479 15.3958 136.094 15.2188 137.781 15.2188C140.24 15.2188 142.344 15.4792 144.094 16C145.865 16.5 147.344 17.1771 148.531 18.0312C149.74 18.8854 150.698 19.8854 151.406 21.0312C152.115 22.1771 152.656 23.375 153.031 24.625C153.656 23.2292 154.479 21.9583 155.5 20.8125C156.542 19.6667 157.75 18.6771 159.125 17.8438C160.5 17.0104 162.01 16.3646 163.656 15.9062C165.323 15.4479 167.083 15.2188 168.938 15.2188C171.479 15.2188 173.646 15.4896 175.438 16.0312C177.25 16.5521 178.771 17.2708 180 18.1875C181.229 19.1042 182.208 20.1771 182.938 21.4062C183.667 22.6354 184.219 23.9583 184.594 25.375C184.969 26.7917 185.208 28.2604 185.312 29.7812C185.438 31.2812 185.5 32.7604 185.5 34.2188V53H174.562V33.4375C174.562 31.9167 174.438 30.5 174.188 29.1875C173.958 27.875 173.531 26.7292 172.906 25.75C172.281 24.7708 171.417 24 170.312 23.4375C169.208 22.875 167.792 22.5938 166.062 22.5938C163.854 22.5938 161.99 23.0104 160.469 23.8438C158.969 24.6562 157.74 25.6979 156.781 26.9688C155.844 28.2188 155.156 29.5938 154.719 31.0938C154.281 32.5938 154.042 34.0312 154 35.4062V53H143.031V34.5C143.031 33.5 143.01 32.5104 142.969 31.5312C142.927 30.5521 142.812 29.625 142.625 28.75C142.438 27.8542 142.156 27.0312 141.781 26.2812C141.427 25.5312 140.927 24.8854 140.281 24.3438C139.635 23.8021 138.823 23.375 137.844 23.0625C136.885 22.75 135.708 22.5938 134.312 22.5938C132.354 22.5938 130.646 22.9792 129.188 23.75C127.729 24.5208 126.51 25.5208 125.531 26.75C124.552 27.9583 123.802 29.3229 123.281 30.8438C122.781 32.3438 122.51 33.8438 122.469 35.3438V53H111.5ZM196 53V16.2188H206.969V22.9688C207.677 21.7396 208.552 20.6458 209.594 19.6875C210.656 18.7292 211.844 17.9167 213.156 17.25C214.469 16.5833 215.896 16.0833 217.438 15.75C218.979 15.3958 220.594 15.2188 222.281 15.2188C224.74 15.2188 226.844 15.4792 228.594 16C230.365 16.5 231.844 17.1771 233.031 18.0312C234.24 18.8854 235.198 19.8854 235.906 21.0312C236.615 22.1771 237.156 23.375 237.531 24.625C238.156 23.2292 238.979 21.9583 240 20.8125C241.042 19.6667 242.25 18.6771 243.625 17.8438C245 17.0104 246.51 16.3646 248.156 15.9062C249.823 15.4479 251.583 15.2188 253.438 15.2188C255.979 15.2188 258.146 15.4896 259.938 16.0312C261.75 16.5521 263.271 17.2708 264.5 18.1875C265.729 19.1042 266.708 20.1771 267.438 21.4062C268.167 22.6354 268.719 23.9583 269.094 25.375C269.469 26.7917 269.708 28.2604 269.812 29.7812C269.938 31.2812 270 32.7604 270 34.2188V53H259.062V33.4375C259.062 31.9167 258.938 30.5 258.688 29.1875C258.458 27.875 258.031 26.7292 257.406 25.75C256.781 24.7708 255.917 24 254.812 23.4375C253.708 22.875 252.292 22.5938 250.562 22.5938C248.354 22.5938 246.49 23.0104 244.969 23.8438C243.469 24.6562 242.24 25.6979 241.281 26.9688C240.344 28.2188 239.656 29.5938 239.219 31.0938C238.781 32.5938 238.542 34.0312 238.5 35.4062V53H227.531V34.5C227.531 33.5 227.51 32.5104 227.469 31.5312C227.427 30.5521 227.312 29.625 227.125 28.75C226.938 27.8542 226.656 27.0312 226.281 26.2812C225.927 25.5312 225.427 24.8854 224.781 24.3438C224.135 23.8021 223.323 23.375 222.344 23.0625C221.385 22.75 220.208 22.5938 218.812 22.5938C216.854 22.5938 215.146 22.9792 213.688 23.75C212.229 24.5208 211.01 25.5208 210.031 26.75C209.052 27.9583 208.302 29.3229 207.781 30.8438C207.281 32.3438 207.01 33.8438 206.969 35.3438V53H196ZM288.5 37.25C288.542 38.4792 288.802 39.6771 289.281 40.8438C289.781 41.9896 290.531 43.0208 291.531 43.9375C292.531 44.8542 293.802 45.5938 295.344 46.1562C296.906 46.6979 298.771 46.9688 300.938 46.9688C302.625 46.9688 304.104 46.7812 305.375 46.4062C306.646 46.0312 307.719 45.5521 308.594 44.9688C309.49 44.3646 310.188 43.7083 310.688 43C311.208 42.2917 311.552 41.6042 311.719 40.9375L321.906 40.9688C321.552 42.5729 320.917 44.1562 320 45.7188C319.104 47.2812 317.833 48.6771 316.188 49.9062C314.542 51.1354 312.49 52.125 310.031 52.875C307.573 53.625 304.615 54 301.156 54C296.885 54 293.25 53.5417 290.25 52.625C287.271 51.6875 284.833 50.3854 282.938 48.7188C281.062 47.0521 279.688 45.0625 278.812 42.75C277.958 40.4167 277.531 37.8542 277.531 35.0625V33.4375C277.531 30.8125 277.969 28.3958 278.844 26.1875C279.74 23.9583 281.135 22.0312 283.031 20.4062C284.927 18.7812 287.354 17.5104 290.312 16.5938C293.271 15.6771 296.833 15.2188 301 15.2188C304.688 15.2188 307.917 15.6979 310.688 16.6562C313.458 17.6146 315.74 18.9792 317.531 20.75C319.344 22.5 320.667 24.6354 321.5 27.1562C322.333 29.6562 322.656 32.4688 322.469 35.5938C322.469 35.9271 322.448 36.2188 322.406 36.4688C322.385 36.7188 322.365 36.9792 322.344 37.25H288.5ZM288.5 31.1875H312.031V31.0312C311.948 29.7188 311.688 28.5 311.25 27.375C310.812 26.2292 310.135 25.2396 309.219 24.4062C308.323 23.5729 307.167 22.9271 305.75 22.4688C304.354 21.9896 302.646 21.75 300.625 21.75C298.354 21.75 296.458 22.0521 294.938 22.6562C293.438 23.2604 292.219 24.0208 291.281 24.9375C290.344 25.8333 289.667 26.8125 289.25 27.875C288.833 28.9167 288.583 29.8958 288.5 30.8125V31.1875ZM330.125 53V16.2188H341.094V24.625C341.531 23.4167 342.135 22.25 342.906 21.125C343.698 20 344.708 19 345.938 18.125C347.167 17.25 348.646 16.5521 350.375 16.0312C352.104 15.4896 354.135 15.2188 356.469 15.2188C357.115 15.2188 357.677 15.2292 358.156 15.25C358.635 15.2708 359.062 15.3021 359.438 15.3438C359.833 15.3854 360.198 15.4375 360.531 15.5C360.865 15.5417 361.198 15.6042 361.531 15.6875L361.438 23.75C360.729 23.6042 359.885 23.4688 358.906 23.3438C357.927 23.2188 356.667 23.1562 355.125 23.1562C352.646 23.1562 350.521 23.5417 348.75 24.3125C347 25.0625 345.552 26.0417 344.406 27.25C343.26 28.4583 342.417 29.8125 341.875 31.3125C341.354 32.8125 341.094 34.3021 341.094 35.7812V53H330.125ZM399.312 29.75C399 28.6667 398.542 27.6875 397.938 26.8125C397.354 25.9375 396.583 25.1875 395.625 24.5625C394.667 23.9375 393.5 23.4583 392.125 23.125C390.75 22.7917 389.125 22.625 387.25 22.625C385.104 22.625 383.25 22.9271 381.688 23.5312C380.125 24.1146 378.833 24.8958 377.812 25.875C376.812 26.8542 376.073 27.9896 375.594 29.2812C375.115 30.5521 374.875 31.8854 374.875 33.2812V35.9062C374.875 37.3229 375.125 38.6875 375.625 40C376.146 41.2917 376.917 42.4271 377.938 43.4062C378.958 44.3854 380.24 45.1667 381.781 45.75C383.344 46.3333 385.167 46.625 387.25 46.625C389.083 46.625 390.677 46.4688 392.031 46.1562C393.406 45.8229 394.573 45.3438 395.531 44.7188C396.51 44.0938 397.302 43.3333 397.906 42.4375C398.51 41.5208 398.979 40.4896 399.312 39.3438H409.375C409.062 41.2604 408.438 43.1042 407.5 44.875C406.562 46.625 405.219 48.1771 403.469 49.5312C401.719 50.8854 399.521 51.9688 396.875 52.7812C394.229 53.5938 391.052 54 387.344 54C383.219 54 379.677 53.5417 376.719 52.625C373.76 51.6875 371.333 50.4062 369.438 48.7812C367.542 47.1354 366.146 45.2083 365.25 43C364.354 40.7708 363.906 38.3646 363.906 35.7812V33.4062C363.906 30.8229 364.354 28.4271 365.25 26.2188C366.167 23.9896 367.573 22.0625 369.469 20.4375C371.385 18.8125 373.823 17.5417 376.781 16.625C379.74 15.6875 383.271 15.2188 387.375 15.2188C390.979 15.2188 394.073 15.6146 396.656 16.4062C399.26 17.1771 401.438 18.2292 403.188 19.5625C404.938 20.8958 406.292 22.4375 407.25 24.1875C408.229 25.9375 408.896 27.7917 409.25 29.75H399.312ZM425.188 37.25C425.229 38.4792 425.49 39.6771 425.969 40.8438C426.469 41.9896 427.219 43.0208 428.219 43.9375C429.219 44.8542 430.49 45.5938 432.031 46.1562C433.594 46.6979 435.458 46.9688 437.625 46.9688C439.312 46.9688 440.792 46.7812 442.062 46.4062C443.333 46.0312 444.406 45.5521 445.281 44.9688C446.177 44.3646 446.875 43.7083 447.375 43C447.896 42.2917 448.24 41.6042 448.406 40.9375L458.594 40.9688C458.24 42.5729 457.604 44.1562 456.688 45.7188C455.792 47.2812 454.521 48.6771 452.875 49.9062C451.229 51.1354 449.177 52.125 446.719 52.875C444.26 53.625 441.302 54 437.844 54C433.573 54 429.938 53.5417 426.938 52.625C423.958 51.6875 421.521 50.3854 419.625 48.7188C417.75 47.0521 416.375 45.0625 415.5 42.75C414.646 40.4167 414.219 37.8542 414.219 35.0625V33.4375C414.219 30.8125 414.656 28.3958 415.531 26.1875C416.427 23.9583 417.823 22.0312 419.719 20.4062C421.615 18.7812 424.042 17.5104 427 16.5938C429.958 15.6771 433.521 15.2188 437.688 15.2188C441.375 15.2188 444.604 15.6979 447.375 16.6562C450.146 17.6146 452.427 18.9792 454.219 20.75C456.031 22.5 457.354 24.6354 458.188 27.1562C459.021 29.6562 459.344 32.4688 459.156 35.5938C459.156 35.9271 459.135 36.2188 459.094 36.4688C459.073 36.7188 459.052 36.9792 459.031 37.25H425.188ZM425.188 31.1875H448.719V31.0312C448.635 29.7188 448.375 28.5 447.938 27.375C447.5 26.2292 446.823 25.2396 445.906 24.4062C445.01 23.5729 443.854 22.9271 442.438 22.4688C441.042 21.9896 439.333 21.75 437.312 21.75C435.042 21.75 433.146 22.0521 431.625 22.6562C430.125 23.2604 428.906 24.0208 427.969 24.9375C427.031 25.8333 426.354 26.8125 425.938 27.875C425.521 28.9167 425.271 29.8958 425.188 30.8125V31.1875Z" fill="black"/>
<path d="M37.9375 29.75C37.625 28.6667 37.1667 27.6875 36.5625 26.8125C35.9792 25.9375 35.2083 25.1875 34.25 24.5625C33.2917 23.9375 32.125 23.4583 30.75 23.125C29.375 22.7917 27.75 22.625 25.875 22.625C23.7292 22.625 21.875 22.9271 20.3125 23.5312C18.75 24.1146 17.4583 24.8958 16.4375 25.875C15.4375 26.8542 14.6979 27.9896 14.2188 29.2812C13.7396 30.5521 13.5 31.8854 13.5 33.2812V35.9062C13.5 37.3229 13.75 38.6875 14.25 40C14.7708 41.2917 15.5417 42.4271 16.5625 43.4062C17.5833 44.3854 18.8646 45.1667 20.4062 45.75C21.9688 46.3333 23.7917 46.625 25.875 46.625C27.7083 46.625 29.3021 46.4688 30.6562 46.1562C32.0312 45.8229 33.1979 45.3438 34.1562 44.7188C35.1354 44.0938 35.9271 43.3333 36.5312 42.4375C37.1354 41.5208 37.6042 40.4896 37.9375 39.3438H48C47.6875 41.2604 47.0625 43.1042 46.125 44.875C45.1875 46.625 43.8438 48.1771 42.0938 49.5312C40.3438 50.8854 38.1458 51.9688 35.5 52.7812C32.8542 53.5938 29.6771 54 25.9688 54C21.8438 54 18.3021 53.5417 15.3438 52.625C12.3854 51.6875 9.95833 50.4062 8.0625 48.7812C6.16667 47.1354 4.77083 45.2083 3.875 43C2.97917 40.7708 2.53125 38.3646 2.53125 35.7812V33.4062C2.53125 30.8229 2.97917 28.4271 3.875 26.2188C4.79167 23.9896 6.19792 22.0625 8.09375 20.4375C10.0104 18.8125 12.4479 17.5417 15.4062 16.625C18.3646 15.6875 21.8958 15.2188 26 15.2188C29.6042 15.2188 32.6979 15.6146 35.2812 16.4062C37.8854 17.1771 40.0625 18.2292 41.8125 19.5625C43.5625 20.8958 44.9167 22.4375 45.875 24.1875C46.8542 25.9375 47.5208 27.7917 47.875 29.75H37.9375Z" fill="black"/>
</svg>
